# xmcd
# Copyright (C) 1995-1998 Ti Kan
#
# Track frame offsets:
#       150
#       13195
#       30369
#       45234
#       62882
#       74970
#       97624
#       110013
#       133782
#       153818
#
# Disc length: 2276 seconds
#
# Revision: 0
# Processed by: cddbd v1.5.2PL0 Copyright (c) Steve Scherf et al.
# Submitted via: CD-Import v1.0
#
DISCID=7e08e20a
DTITLE=Bernhard Schnur - Yol
DYEAR=12
DGENRE=
TTITLE0=Stanica
TTITLE1=Whole Lotta Shaking
TTITLE2=Closer
TTITLE3=Ho Chi Minh City
TTITLE4=My Red Flag
TTITLE5=Steam Engine One
TTITLE6=Tree
TTITLE7=The Man
TTITLE8=Sovate
TTITLE9=President
EXTD=
EXTT0=
EXTT1=
EXTT2=
EXTT3=
EXTT4=
EXTT5=
EXTT6=
EXTT7=
EXTT8=
EXTT9=
PLAYORDER=
